<?xml version="1.0" encoding="utf-8"?>
    <!--
        _    ___ __  _ __ ___
        \ \ / / '_ \| '__/ _ \
         \ V /| |_) | | | (_) |
          \_/ | .__/|_|  \___/
              |_|

        (C) VPRO Digitaal, the Netherlands / http://www.vpro.nl/digitaal
    -->
    <!DOCTYPE svg PUBLIC "-//W3C//DTD SVG 1.1//EN" "http://www.w3.org/Graphics/SVG/1.1/DTD/svg11.dtd">
<svg version="1.1" id="Layer_1" xmlns="http://www.w3.org/2000/svg" xmlns:xlink="http://www.w3.org/1999/xlink" x="0px" y="0px"
     width="230.199px" height="67.104px" viewBox="0 0 230.199 67.104" enable-background="new 0 0 230.199 67.104"
     xml:space="preserve">
<g>
    <path fill="none" d="M81.801,38.002c7.2,0,11.901-5.4,11.901-12.101c0-1.871-0.388-3.693-1.12-5.336L71.058,31.328
        C72.868,35.288,76.703,38.002,81.801,38.002z"/>
    <path fill="none" d="M180,37.802c6.201,0,11.402-5,11.402-11.901c0-1.755-0.327-3.384-0.915-4.84L169.84,31.385
        C171.739,35.292,175.615,37.802,180,37.802z"/>
    <path fill="#00ADEE" d="M69.3,7.4c1.788-2.554,4.559-4.858,8.276-6.194h-8.476V7.4H69.3z"/>
    <path fill="#00ADEE" d="M92.588,1.206c6.222,2.024,11.063,6.486,13.779,12.467L116.6,8.556v-7.35H92.588z"/>
    <path fill="#00ADEE" d="M81.801,13.801c-7.601,0-11.9,5.8-11.9,12.101c0,1.956,0.411,3.794,1.157,5.426l21.525-10.763
        C90.849,16.672,87.145,13.801,81.801,13.801z"/>
    <polygon fill="#00ADEE" points="49.401,1.206 32.501,50.603 32.496,50.603 32.496,50.609 55.2,39.257 55.2,1.206     "/>
    <path fill="#00ADEE" d="M180,13.901c-6.199,0-11.4,5-11.4,12c0,2.019,0.455,3.868,1.24,5.484l20.647-10.324
        C188.732,16.708,184.647,13.901,180,13.901z"/>
    <path fill="#00ADEE" d="M171.378,1.206h-17.914l-5.263,14.595c-1.6-0.9-3.5-1.4-5.4-1.4c-6.201,0-11.4,4.3-11.4,11.601v24.602
        h-0.009l0.002,0.006l25.032-12.516c-1.96-3.864-2.926-8.123-2.926-12.192C153.5,15.931,159.278,4.814,171.378,1.206z"/>
    <path fill="#00ADEE" d="M203.896,14.358l26.303-13.152h-41.575C196.061,3.423,201.111,8.474,203.896,14.358z"/>
    <path fill="#00ADEE" d="M130.5,1.206v6.895h0.1c1.721-2.78,4.675-5.421,8.646-6.895H130.5z"/>
    <polygon points="34.002,1.2 25.001,32.002 24.801,32.002 15.801,1.2 0,1.2 16.801,50.603 32.501,50.603 49.401,1.206 49.403,1.2
        "/>
    <path d="M106.367,13.673C103.651,7.692,98.81,3.23,92.588,1.206C90.183,0.423,87.575,0,84.801,0c-2.712,0-5.119,0.449-7.225,1.206
        C73.859,2.542,71.088,4.846,69.3,7.4h-0.199V1.2H55.2v65.904H70V45.103h0.101c2.2,3.2,7,6.7,14.7,6.7
        c17.401,0,24.002-14.501,24.002-26.402C108.804,21.101,107.938,17.135,106.367,13.673z"/>
    <path d="M146.102,0c-2.536,0-4.826,0.454-6.855,1.206c-3.972,1.473-6.926,4.114-8.646,6.895h-0.1V1.2h-13.9v49.403h14.801V26.001
        c0-7.3,5.199-11.601,11.4-11.601c1.9,0,3.801,0.5,5.4,1.4l5.263-14.595l0.038-0.106C151.301,0.4,148.801,0,146.102,0z"/>
    <path d="M203.896,14.358c-2.785-5.884-7.835-10.935-15.272-13.152C186.038,0.435,183.169,0,180,0s-6.037,0.435-8.622,1.206
        C159.278,4.814,153.5,15.931,153.5,25.901c0,4.069,0.966,8.328,2.926,12.192c3.869,7.628,11.626,13.71,23.574,13.71
        c18.002,0,26.502-13.801,26.502-25.902C206.502,22.059,205.642,18.046,203.896,14.358z"/>
</g>
<path fill="#FFFFFF" d="M81.801,38.002c-5.099,0-8.933-2.715-10.744-6.675c-0.746-1.632-1.157-3.471-1.157-5.426
    c0-6.3,4.3-12.101,11.9-12.101c5.344,0,9.048,2.872,10.781,6.764c0.732,1.644,1.12,3.466,1.12,5.336
    C93.703,32.602,89.001,38.002,81.801,38.002z"/>
<path fill="#FFFFFF" d="M180,37.802c-4.386,0-8.262-2.51-10.16-6.417c-0.785-1.616-1.24-3.465-1.24-5.484c0-7,5.201-12,11.4-12
    c4.646,0,8.731,2.808,10.487,7.161c0.588,1.456,0.915,3.085,0.915,4.84C191.403,32.802,186.202,37.802,180,37.802z"/>
</svg>